<svg width="16" height="13" viewBox="0 0 16 13" fill="none" xmlns="http://www.w3.org/2000/svg">
<path d="M13.8154 12.9552C14.43 12.9441 14.9365 12.7369 15.3369 12.3341C15.6875 11.9814 15.8889 11.5546 15.9414 11.0529L15.9551 10.8322V2.16711C15.9438 1.56893 15.7376 1.06925 15.3369 0.666138C14.9365 0.263393 14.43 0.0561332 13.8154 0.0450439H2.18457C1.56996 0.0561332 1.0635 0.263393 0.663086 0.666138C0.262316 1.06937 0.0560891 1.56968 0.0449219 2.16809V10.8322C0.0560891 11.4306 0.262316 11.9309 0.663086 12.3341C1.01349 12.6865 1.44488 12.8889 1.95898 12.9415L2.18457 12.9552H13.8154ZM7.97461 6.38489L1.50977 1.88196L1.47852 1.86047L1.49414 1.82629C1.55463 1.69428 1.64592 1.59119 1.76758 1.51868C1.88789 1.44704 2.02586 1.40545 2.17969 1.39368H13.8203C13.9741 1.40545 14.1121 1.44704 14.2324 1.51868C14.3541 1.59119 14.4454 1.69428 14.5059 1.82629L14.5215 1.86047L14.4902 1.88196L8.02539 6.38489L8 6.40247L7.97461 6.38489ZM2.18066 11.6066C1.9659 11.5947 1.78204 11.5172 1.63184 11.3741C1.48043 11.2299 1.40527 11.0481 1.40527 10.8331V3.46887L1.47559 3.5177L7.61621 7.78333L7.61523 7.7843C7.73278 7.85822 7.86119 7.89368 8 7.89368C8.13854 7.89368 8.26643 7.85792 8.38379 7.7843V7.78333L14.5244 3.5177L14.5947 3.46887V10.8331C14.5947 11.0481 14.5196 11.2299 14.3682 11.3741C14.218 11.5172 14.0341 11.5947 13.8193 11.6066H2.18066Z" fill="#7F858D" stroke="white" stroke-width="0.09"/>
</svg>
